<?xml version="1.0" standalone="no"?>
<!DOCTYPE svg PUBLIC "-//W3C//DTD SVG 20010904//EN" "http://www.w3.org/TR/2001/REC-SVG-20010904/DTD/svg10.dtd">
<!-- Created using Krita: https://krita.org -->
<svg xmlns="http://www.w3.org/2000/svg" 
    xmlns:xlink="http://www.w3.org/1999/xlink"
    xmlns:krita="http://krita.org/namespaces/svg/krita"
    xmlns:sodipodi="http://sodipodi.sourceforge.net/DTD/sodipodi-0.dtd"
    width="368.64pt"
    height="368.64pt"
    viewBox="0 0 368.64 368.64">
<defs>
  <linearGradient id="gradient0" gradientUnits="objectBoundingBox" x1="0" y1="0" x2="1.4142135623731" y2="0" spreadMethod="pad">
   <stop stop-color="#0046aa" offset="0.0047" stop-opacity="1"/>
   <stop stop-color="#0046aa" offset="0.4052" stop-opacity="1"/>
   <stop stop-color="#0046aa" offset="0.5105" stop-opacity="0"/>
   <stop stop-color="#000000" offset="1" stop-opacity="0"/>
  </linearGradient>
  <linearGradient id="gradient1" gradientUnits="objectBoundingBox" x1="0" y1="0" x2="1.4142135623731" y2="0" spreadMethod="pad">
   <stop stop-color="#0046aa" offset="0.0047" stop-opacity="1"/>
   <stop stop-color="#0046aa" offset="0.4052" stop-opacity="1"/>
   <stop stop-color="#0046aa" offset="0.5105" stop-opacity="0"/>
   <stop stop-color="#000000" offset="1" stop-opacity="0"/>
  </linearGradient>
  <linearGradient id="gradient2" gradientUnits="objectBoundingBox" x1="0" y1="0" x2="1.4142135623731" y2="0" spreadMethod="pad">
   <stop stop-color="#0046aa" offset="0.0047" stop-opacity="1"/>
   <stop stop-color="#0046aa" offset="0.4052" stop-opacity="1"/>
   <stop stop-color="#0046aa" offset="0.5105" stop-opacity="0"/>
   <stop stop-color="#000000" offset="1" stop-opacity="0"/>
  </linearGradient>
  <linearGradient id="gradient3" gradientUnits="objectBoundingBox" x1="0.00336839298418831" y1="0.502416917819104" x2="1.06345234116915" y2="0.497444042587126" spreadMethod="pad">
   <stop stop-color="#aa0019" offset="0.5129" stop-opacity="0"/>
   <stop stop-color="#0046aa" offset="0.5787" stop-opacity="1"/>
  </linearGradient>
  <linearGradient id="gradient4" gradientUnits="objectBoundingBox" x1="0.00217214505559493" y1="0.503411119348098" x2="1.24923035259919" y2="0.528792880760137" spreadMethod="pad">
   <stop stop-color="#aa0019" offset="0.5129" stop-opacity="0"/>
   <stop stop-color="#0046aa" offset="0.5787" stop-opacity="1"/>
  </linearGradient>
  <linearGradient id="gradient5" gradientUnits="objectBoundingBox" x1="0.215633846752246" y1="0.509583357703233" x2="0.998459383408305" y2="0.509823350440327" spreadMethod="pad">
   <stop stop-color="#aa0019" offset="0.5129" stop-opacity="0"/>
   <stop stop-color="#0046aa" offset="0.5787" stop-opacity="1"/>
  </linearGradient>
 </defs>
<path id="path3361" transform="matrix(1.00079934435117 0.00100395247889743 -0.00100395247889743 1.00079934435117 22.254445073181 146.231706029585)" fill="url(#gradient0)" stroke-opacity="0" stroke="#000000" stroke-width="0" stroke-linecap="square" stroke-linejoin="bevel" d="M116.815 156.607C96.1705 154.028 80.9266 150.953 61.836 145.517C53.3843 143.111 38.2253 138.164 38.2253 137.813C38.2253 137.16 44.3514 133.452 45.43 133.452C46.1052 133.453 54.0469 135.274 63.0783 137.5C72.1096 139.726 80.061 141.547 80.748 141.547C81.8921 141.547 81.8265 141.135 79.9679 136.656C76.6017 128.543 72.8466 117.193 71.5306 111.153C70.505 106.447 69.8914 103.035 68.5078 87.795C70.1208 67.4999 70.5881 65.51 76.3615 47.9461C80.6569 34.8788 84.7861 25.9553 89.058 20.5085C90.782 18.3103 92.1926 16.2612 92.1926 15.9551C92.1926 15.0744 90.7794 15.2373 73.4229 18.1184C54.6605 21.2329 49.5824 22.7702 28.682 29.138C20.5195 31.7038 12.453 34.5966 10.7834 34.8391L0 38.5514L7.5572 33.3364C10.6596 30.6733 25.9211 22.6048 37.1673 19.9014C74.6758 7.39627 105.26 0.898844 138.593 0.102424C163.984 -0.504216 174.818 1.49826 195.869 8.41093C214.822 14.6345 222.778 19.0456 260.471 45.7047C268.736 51.3868 286.653 60.479 295.192 63.3244C302.146 65.6416 302.983 65.6259 311.79 66.2611C316.488 66.2329 323.252 65.6923 325.49 65.112C326.054 66.0259 320.852 69.4889 310.729 74.3928C294.819 82.4059 288.372 86.3289 279.661 93.2637C272.77 98.7501 266.609 102.398 264.104 103.473C263.953 103.322 263.024 99.1791 262.116 96.048C258.756 84.4607 251.79 65.3181 250.706 65.3181C250.396 65.3181 249.623 74.2481 249.211 76.3815C248.489 79.1574 248.417 77.6648 246.692 84.2481C243.407 93.9451 241.815 88.5285 237.279 86.1927C233.527 84.2604 231.95 82.5839 229.368 82.3478C227.443 82.3003 221.963 83.2573 219.38 85.8391C216.512 88.7062 216.818 93.1995 217.59 96.0649C218.568 99.6978 222.132 103.723 226.451 106.074C229.671 107.827 230.402 107.963 234.654 107.607C238.849 107.255 238.889 106.104 241.61 105.682C238.712 112.416 231.756 116.437 223.405 124.888C215.055 133.338 208.222 140.543 208.222 140.899C208.222 141.957 209.997 141.672 219.164 139.145C223.956 137.824 228.219 136.857 228.637 136.996C229.502 137.284 223.724 140.722 218.678 142.922C203.45 149.561 176.732 155.17 154.592 156.375C142.988 157.007 121.091 157.142 116.815 156.607Z" sodipodi:nodetypes="ccccccccccccccccccccccccccccccccccccccccccccc"/><path id="path1286" transform="matrix(3.78254872935835 0.00379446608835623 -0.00379446608835623 3.78254872935835 62.6468466837958 114.581665730619)" fill="url(#gradient1)" stroke-opacity="0" stroke="#000000" stroke-width="0" stroke-linecap="square" stroke-linejoin="bevel" d="M1e-05 6.74313C1.71177 5.92325 3.51381 5.31266 5.30557 4.6959C9.20311 3.41827 13.1956 2.39665 17.2654 1.85038C18.2399 1.71958 19.2203 1.63781 20.1978 1.53152C24.3923 1.19311 28.6187 1.30651 32.7814 1.93609C35.5746 2.35855 36.4651 2.63754 39.2314 3.30408C44.0655 4.6022 48.7581 6.35509 53.5587 7.76438C54.9182 8.16345 56.3112 8.45167 57.6518 8.91028C58.9319 9.3482 60.1555 9.93639 61.4074 10.4494C62.5061 10.9767 63.6047 11.504 64.7034 12.0313C64.7034 12.0313 64.7618 11.9927 64.7618 11.9927L64.7618 11.9927C63.6631 11.4654 62.5644 10.938 61.4657 10.4107C60.2881 9.84772 59.1105 9.28475 57.9329 8.72177C56.8618 8.14188 55.814 7.51693 54.7198 6.98209C52.4425 5.86902 50.1954 5.02652 47.8111 4.17869C46.6746 3.77458 45.533 3.38414 44.3835 3.01883C43.2849 2.66971 42.1732 2.36346 41.0681 2.03578C39.9811 1.76654 38.9017 1.46491 37.8072 1.22805C32.6397 0.109709 27.3295 -0.230649 22.0588 0.149227C21.0831 0.249395 20.1048 0.326654 19.1317 0.449733C15.137 0.955 11.2088 1.90328 7.36658 3.09386C5.59458 3.67483 3.81163 4.2482 2.12248 5.0467C2.12248 5.0467 0 6.74313 0 6.74313Z" sodipodi:nodetypes="ccccccccccccccccccccccccc"/><path id="path2074" transform="matrix(1.00079939293757 0.00100395252763692 -0.00100395252763692 1.00079939293757 7.36766429837971 65.8729604117133)" fill="url(#gradient2)" stroke-opacity="0" stroke="#000000" stroke-width="0" stroke-linecap="square" stroke-linejoin="bevel" d="M345.616 72.6825C342.277 71.5522 334.536 68.403 328.414 65.6844C315.375 59.8941 307.207 57.215 288.491 52.5898C239.349 40.4453 176.792 31.4543 123.675 28.9016C106.185 28.0611 71.8896 28.0532 55.2045 28.886C48.3405 29.2286 33.2089 30.606 21.5786 31.9469C9.94832 33.2879 0.258311 34.2107 0.0452311 33.9976C-0.167849 33.7845 0.392631 32.8202 1.29074 31.8547C4.46326 28.4441 8.27192 26.3982 13.6659 25.2073C16.6059 24.5581 28.5968 21.3171 40.3123 18.005C85.3969 5.25917 107.885 0.789587 130.421 0.0959071C158.034 -0.754053 186.99 3.99399 229.834 16.3971C255.22 23.746 273.146 30.2325 297.045 40.7165C304.466 43.9717 315.85 48.9597 322.343 51.801C331.245 55.6966 335.558 58.0204 339.882 61.2511C345.647 65.5588 354.048 73.2615 354.048 74.2402C354.048 75.188 351.779 74.7687 345.616 72.6826Z" sodipodi:nodetypes="cccccccccccccccccc"/><path id="path33611" transform="matrix(1.00079934435117 0.00100395247889743 -0.00100395247889743 1.00079934435117 22.254445073181 146.231706029585)" fill="none" stroke="url(#gradient3)" stroke-width="3.6" stroke-linecap="square" stroke-linejoin="bevel" stroke-dasharray="14.4,7.2" krita:marker-fill-method="auto" d="M116.815 156.607C96.1705 154.028 80.9266 150.953 61.836 145.517C53.3843 143.111 38.2253 138.164 38.2253 137.813C38.2253 137.16 44.3514 133.452 45.43 133.452C46.1052 133.453 54.0469 135.274 63.0783 137.5C72.1096 139.726 80.061 141.547 80.748 141.547C81.8921 141.547 81.8265 141.135 79.9679 136.656C76.6017 128.543 72.8466 117.193 71.5306 111.153C70.505 106.447 69.8914 103.035 68.5078 87.795C70.1208 67.4999 70.5881 65.51 76.3615 47.9461C80.6569 34.8788 84.7861 25.9553 89.058 20.5085C90.782 18.3103 92.1926 16.2612 92.1926 15.9551C92.1926 15.0744 90.7794 15.2373 73.4229 18.1184C54.6605 21.2329 49.5824 22.7702 28.682 29.138C20.5195 31.7038 12.453 34.5966 10.7834 34.8391L0 38.5514L7.5572 33.3364C10.6596 30.6733 25.9211 22.6048 37.1673 19.9014C74.6758 7.39627 105.26 0.898844 138.593 0.102424C163.984 -0.504216 174.818 1.49826 195.869 8.41093C214.822 14.6345 222.778 19.0456 260.471 45.7047C268.736 51.3868 286.653 60.479 295.192 63.3244C302.146 65.6416 302.983 65.6259 311.79 66.2611C316.488 66.2329 323.252 65.6923 325.49 65.112C326.054 66.0259 320.852 69.4889 310.729 74.3928C294.819 82.4059 288.372 86.3289 279.661 93.2637C272.77 98.7501 266.609 102.398 264.104 103.473C263.953 103.322 263.024 99.1791 262.116 96.048C258.756 84.4607 251.79 65.3181 250.706 65.3181C250.396 65.3181 249.623 74.2481 249.211 76.3815C248.489 79.1574 248.417 77.6648 246.692 84.2481C243.407 93.9451 241.815 88.5285 237.279 86.1927C233.527 84.2604 231.95 82.5839 229.368 82.3478C227.443 82.3003 221.963 83.2573 219.38 85.8391C216.512 88.7062 216.818 93.1995 217.59 96.0649C218.568 99.6978 222.132 103.723 226.451 106.074C229.671 107.827 230.402 107.963 234.654 107.607C238.849 107.255 238.889 106.104 241.61 105.682C238.712 112.416 231.756 116.437 223.405 124.888C215.055 133.338 208.222 140.543 208.222 140.899C208.222 141.957 209.997 141.672 219.164 139.145C223.956 137.824 228.219 136.857 228.637 136.996C229.502 137.284 223.724 140.722 218.678 142.922C203.45 149.561 176.732 155.17 154.592 156.375C142.988 157.007 121.091 157.142 116.815 156.607Z" sodipodi:nodetypes="ccccccccccccccccccccccccccccccccccccccccccccc"/><path id="path12861" transform="matrix(3.78254872935835 0.00379446608835623 -0.00379446608835623 3.78254872935835 62.6468466837958 114.581665730619)" fill="none" stroke="url(#gradient4)" stroke-width="0.72" stroke-linecap="square" stroke-linejoin="bevel" stroke-dasharray="2.88,1.44" krita:marker-fill-method="auto" d="M1e-05 6.74313C1.71177 5.92325 3.51381 5.31266 5.30557 4.6959C9.20311 3.41827 13.1956 2.39665 17.2654 1.85038C18.2399 1.71958 19.2203 1.63781 20.1978 1.53152C24.3923 1.19311 28.6187 1.30651 32.7814 1.93609C35.5746 2.35855 36.4651 2.63754 39.2314 3.30408C44.0655 4.6022 48.7581 6.35509 53.5587 7.76438C54.9182 8.16345 56.3112 8.45167 57.6518 8.91028C58.9319 9.3482 60.1555 9.93639 61.4074 10.4494C62.5061 10.9767 63.6047 11.504 64.7034 12.0313C64.7034 12.0313 64.7618 11.9927 64.7618 11.9927L64.7618 11.9927C63.6631 11.4654 62.5644 10.938 61.4657 10.4107C60.2881 9.84772 59.1105 9.28475 57.9329 8.72177C56.8618 8.14188 55.814 7.51693 54.7198 6.98209C52.4425 5.86902 50.1954 5.02652 47.8111 4.17869C46.6746 3.77458 45.533 3.38414 44.3835 3.01883C43.2849 2.66971 42.1732 2.36346 41.0681 2.03578C39.9811 1.76654 38.9017 1.46491 37.8072 1.22805C32.6397 0.109709 27.3295 -0.230649 22.0588 0.149227C21.0831 0.249395 20.1048 0.326654 19.1317 0.449733C15.137 0.955 11.2088 1.90328 7.36658 3.09386C5.59458 3.67483 3.81163 4.2482 2.12248 5.0467C2.12248 5.0467 0 6.74313 0 6.74313Z" sodipodi:nodetypes="ccccccccccccccccccccccccc"/><path id="path20741" transform="matrix(1.00079939293757 0.00100395252763692 -0.00100395252763692 1.00079939293757 7.19199652218604 65.8729604117133)" fill="none" stroke="url(#gradient5)" stroke-width="3.6" stroke-linecap="square" stroke-linejoin="bevel" stroke-dasharray="14.4,7.2" krita:marker-fill-method="auto" d="M345.616 72.6825C342.277 71.5522 334.536 68.403 328.414 65.6844C315.375 59.8941 307.207 57.215 288.491 52.5898C239.349 40.4453 176.792 31.4543 123.675 28.9016C106.185 28.0611 71.8896 28.0532 55.2045 28.886C48.3405 29.2286 33.2089 30.606 21.5786 31.9469C9.94832 33.2879 0.258311 34.2107 0.0452311 33.9976C-0.167849 33.7845 0.392631 32.8202 1.29074 31.8547C4.46326 28.4441 8.27192 26.3982 13.6659 25.2073C16.6059 24.5581 28.5968 21.3171 40.3123 18.005C85.3969 5.25917 107.885 0.789587 130.421 0.0959071C158.034 -0.754053 186.99 3.99399 229.834 16.3971C255.22 23.746 273.146 30.2325 297.045 40.7165C304.466 43.9717 315.85 48.9597 322.343 51.801C331.245 55.6966 335.558 58.0204 339.882 61.2511C345.647 65.5588 354.048 73.2615 354.048 74.2402C354.048 75.188 351.779 74.7687 345.616 72.6826Z" sodipodi:nodetypes="cccccccccccccccccc"/>
</svg>
