<?xml version="1.0" standalone="no"?>
<!DOCTYPE svg PUBLIC "-//W3C//DTD SVG 20010904//EN" "http://www.w3.org/TR/2001/REC-SVG-20010904/DTD/svg10.dtd">
<!-- Created using Krita: https://krita.org -->
<svg xmlns="http://www.w3.org/2000/svg" 
    xmlns:xlink="http://www.w3.org/1999/xlink"
    xmlns:krita="http://krita.org/namespaces/svg/krita"
    xmlns:sodipodi="http://sodipodi.sourceforge.net/DTD/sodipodi-0.dtd"
    width="368.64pt"
    height="368.64pt"
    viewBox="0 0 368.64 368.64">
<defs/>
<path id="path3361" transform="matrix(0.719999919192103 0 0 0.719999919192103 85.4043505924259 222.537592509064)" fill="#0046aa" stroke-opacity="0" stroke="#000000" stroke-width="0" stroke-linecap="square" stroke-linejoin="bevel" d="M116.815 156.607C96.1705 154.028 80.9266 150.953 61.836 145.517C53.3843 143.111 38.2253 138.164 38.2253 137.813C38.2253 137.16 44.3514 133.452 45.43 133.452C46.1052 133.453 54.0469 135.274 63.0783 137.5C72.1096 139.726 80.061 141.547 80.748 141.547C81.8921 141.547 81.8265 141.135 79.9679 136.656C76.6017 128.543 72.8466 117.193 71.5306 111.153C70.505 106.447 69.8914 103.035 68.5078 87.795C70.1208 67.4999 70.5881 65.51 76.3615 47.9461C80.6569 34.8788 84.7861 25.9553 89.058 20.5085C90.782 18.3103 92.1926 16.2612 92.1926 15.9551C92.1926 15.0744 90.7794 15.2373 73.4229 18.1184C54.6605 21.2329 49.5824 22.7702 28.682 29.138C20.5195 31.7038 12.453 34.5966 10.7834 34.8391L0 38.5514L7.5572 33.3364C10.6596 30.6733 25.9211 22.6048 37.1673 19.9014C74.6758 7.39627 105.26 0.898844 138.593 0.102424C163.984 -0.504216 174.818 1.49826 195.869 8.41093C214.822 14.6345 222.778 19.0456 260.471 45.7047C268.736 51.3868 286.653 60.479 295.192 63.3244C302.146 65.6416 302.983 65.6259 311.79 66.2611C316.488 66.2329 323.252 65.6923 325.49 65.112C326.054 66.0259 320.852 69.4889 310.729 74.3928C294.819 82.4059 288.372 86.3289 279.661 93.2637C272.77 98.7501 266.609 102.398 264.104 103.473C263.953 103.322 263.024 99.1791 262.116 96.048C258.756 84.4607 251.79 65.3181 250.706 65.3181C250.396 65.3181 249.623 74.2481 249.211 76.3815C248.489 79.1574 248.417 77.6648 246.692 84.2481C243.407 93.9451 241.815 88.5285 237.279 86.1927C233.527 84.2604 231.95 82.5839 229.368 82.3478C227.443 82.3003 221.963 83.2573 219.38 85.8391C216.512 88.7062 216.818 93.1995 217.59 96.0649C218.568 99.6978 222.132 103.723 226.451 106.074C229.671 107.827 230.402 107.963 234.654 107.607C238.849 107.255 238.889 106.104 241.61 105.682C238.712 112.416 231.756 116.437 223.405 124.888C215.055 133.338 208.222 140.543 208.222 140.899C208.222 141.957 209.997 141.672 219.164 139.145C223.956 137.824 228.219 136.857 228.637 136.996C229.502 137.284 223.724 140.722 218.678 142.922C203.45 149.561 176.732 155.17 154.592 156.375C142.988 157.007 121.091 157.142 116.815 156.607Z" sodipodi:nodetypes="ccccccccccccccccccccccccccccccccccccccccccccc"/><path id="path1286" transform="matrix(2.72125955602405 0 0 2.72125955602405 114.440777318544 199.738639314392)" fill="#0046aa" stroke-opacity="0" stroke="#000000" stroke-width="0" stroke-linecap="square" stroke-linejoin="bevel" d="M1e-05 6.74313C1.71177 5.92325 3.51381 5.31266 5.30557 4.6959C9.20311 3.41827 13.1956 2.39665 17.2654 1.85038C18.2399 1.71958 19.2203 1.63781 20.1978 1.53152C24.3923 1.19311 28.6187 1.30651 32.7814 1.93609C35.5746 2.35855 36.4651 2.63754 39.2314 3.30408C44.0655 4.6022 48.7581 6.35509 53.5587 7.76438C54.9182 8.16345 56.3112 8.45167 57.6518 8.91028C58.9319 9.3482 60.1555 9.93639 61.4074 10.4494C62.5061 10.9767 63.6047 11.504 64.7034 12.0313C64.7034 12.0313 64.7618 11.9927 64.7618 11.9927L64.7618 11.9927C63.6631 11.4654 62.5644 10.938 61.4657 10.4107C60.2881 9.84772 59.1105 9.28475 57.9329 8.72177C56.8618 8.14188 55.814 7.51693 54.7198 6.98209C52.4425 5.86902 50.1954 5.02652 47.8111 4.17869C46.6746 3.77458 45.533 3.38414 44.3835 3.01883C43.2849 2.66971 42.1732 2.36346 41.0681 2.03578C39.9811 1.76654 38.9017 1.46491 37.8072 1.22805C32.6397 0.109709 27.3295 -0.230649 22.0588 0.149227C21.0831 0.249395 20.1048 0.326654 19.1317 0.449733C15.137 0.955 11.2088 1.90328 7.36658 3.09386C5.59458 3.67483 3.81163 4.2482 2.12248 5.0467C2.12248 5.0467 0 6.74313 0 6.74313Z" sodipodi:nodetypes="ccccccccccccccccccccccccc"/><path id="path2074" transform="matrix(0.719999954146372 0 0 0.719999954146372 74.6364471849599 164.736316070536)" fill="#0046aa" stroke-opacity="0" stroke="#000000" stroke-width="0" stroke-linecap="square" stroke-linejoin="bevel" d="M345.616 72.6825C342.277 71.5522 334.536 68.403 328.414 65.6844C315.375 59.8941 307.207 57.215 288.491 52.5898C239.349 40.4453 176.792 31.4543 123.675 28.9016C106.185 28.0611 71.8896 28.0532 55.2045 28.886C48.3405 29.2286 33.2089 30.606 21.5786 31.9469C9.94832 33.2879 0.258311 34.2107 0.0452311 33.9976C-0.167849 33.7845 0.392631 32.8202 1.29074 31.8547C4.46326 28.4441 8.27192 26.3982 13.6659 25.2073C16.6059 24.5581 28.5968 21.3171 40.3123 18.005C85.3969 5.25917 107.885 0.789587 130.421 0.0959071C158.034 -0.754053 186.99 3.99399 229.834 16.3971C255.22 23.746 273.146 30.2325 297.045 40.7165C304.466 43.9717 315.85 48.9597 322.343 51.801C331.245 55.6966 335.558 58.0204 339.882 61.2511C345.647 65.5588 354.048 73.2615 354.048 74.2402C354.048 75.188 351.779 74.7687 345.616 72.6826Z" sodipodi:nodetypes="cccccccccccccccccc"/><path id="path3783" transform="matrix(2.72125957833795 0 0 2.72125957833795 66.2549035580985 136.701920379937)" fill="#0046aa" stroke-opacity="0" stroke="#000000" stroke-width="0" stroke-linecap="square" stroke-linejoin="bevel" d="M0.0125662 0.911052C0.751361 6.6081 1.29132 12.3298 1.90493 18.0414C2.76543 25.8969 2.33707 21.9769 3.19003 29.8014C3.30498 30.8558 4.79614 30.6932 4.6812 29.6388L4.6812 29.6388C3.82827 21.8146 4.25654 25.7338 3.39635 17.8812C2.78019 12.1459 2.23879 6.4003 1.49465 0.679902C1.3312 -0.368089 -0.150882 -0.136939 0.0125662 0.911052Z" sodipodi:nodetypes="cccccccc"/><path id="path3781" transform="matrix(2.72125960342385 0 0 2.72125960342385 35.4460919981 73.666372929877)" fill="#0046aa" stroke-opacity="0" stroke="#000000" stroke-width="0" stroke-linecap="square" stroke-linejoin="bevel" d="M0.0725478 1.07963C0.989849 4.76605 1.41214 8.56149 1.88912 12.3234C2.7727 20.0413 3.13682 27.8049 3.6556 35.5523C4.18065 43.3934 4.10308 42.061 4.77193 49.9204C5.79812 60.7237 7.43795 71.4536 9.04097 82.1823C9.19771 83.2314 10.6812 83.0097 10.5245 81.9607L10.5245 81.9607C8.92616 71.2633 7.29059 60.5649 6.26653 49.7931C5.59919 41.9537 5.67664 43.2835 5.15258 35.4571C4.63171 27.6785 4.26583 19.8835 3.37719 12.1346C2.96741 8.90546 2.91017 8.21146 2.42326 5.19072C2.19581 3.77957 1.95561 2.34012 1.59636 0.952814C1.55764 0.803311 1.50557 0.657587 1.46017 0.509976C1.05736 -0.471221 -0.330259 0.0984338 0.0725478 1.07963Z" sodipodi:nodetypes="cccccccccccccc"/><path id="path3785" transform="matrix(2.72125960888954 0 0 2.72125960888954 272.613767129014 27.7032979837266)" fill="#0046aa" stroke-opacity="0" stroke="#000000" stroke-width="0" stroke-linecap="square" stroke-linejoin="bevel" d="M10.4152 0.71033C10.1545 3.21197 9.85228 5.70869 9.53696 8.20394C8.32313 17.6078 6.25588 26.8691 4.12351 36.0986C3.8939 37.0599 3.6643 38.0212 3.43469 38.9825C3.18248 40.0384 0.280128 52.5437 0.0279178 53.5996C-0.218482 54.6312 1.24048 54.9797 1.48689 53.9481L1.48689 53.9481C1.74095 52.8844 4.64516 40.3713 4.89922 39.3075C5.12782 38.3504 5.35642 37.3933 5.58501 36.4362C7.72855 27.1574 9.80559 17.8462 11.0251 8.39198C11.3411 5.89082 11.6442 3.38821 11.9055 0.88065C12.0259 -0.173151 10.5356 -0.343471 10.4152 0.71033Z" sodipodi:nodetypes="cccccccccccc"/><path id="path3787" transform="matrix(2.72125961772907 0 0 2.72125961772907 311.313929866381 92.8143041059232)" fill="#0046aa" stroke-opacity="0" stroke="#000000" stroke-width="0" stroke-linecap="square" stroke-linejoin="bevel" d="M7.76414 0.716021C7.24933 3.58818 6.62229 6.44058 6.05022 9.3022C5.04522 14.7284 3.84435 20.1127 2.5755 25.4818C2.41318 26.1687 0.192297 35.7988 0.0280192 36.4852C-0.218841 37.5168 1.23996 37.8659 1.48683 36.8343L1.48683 36.8343C1.64815 36.1602 3.86611 26.5424 4.02556 25.8679C5.30194 20.4682 6.51018 15.0534 7.52111 9.59625C8.10207 6.6901 8.74461 3.7939 9.2557 0.874959C9.36808 -0.179731 7.87653 -0.338666 7.76414 0.716021Z" sodipodi:nodetypes="cccccccccc"/><path id="path3771" transform="matrix(2.72125954958254 0 0 2.72125954958254 64.8760845991222 20.7059643293889)" fill="#0046aa" stroke-opacity="0" stroke="#000000" stroke-width="0" stroke-linecap="square" stroke-linejoin="bevel" d="M3.72982 45.8341C7.26391 44.5913 10.6597 42.9857 14.063 41.4293C24.9381 36.3268 35.6205 30.8263 46.3404 25.4086C57.0475 19.9863 67.8471 14.7505 78.6724 9.56938C81.6774 8.12565 84.6958 6.71014 87.7024 5.26996C87.754 5.24505 87.9123 5.17928 87.8573 5.19524C85.6223 5.84312 87.8031 6.13388 84.1184 1.76964C82.6793 5.38267 87.7889 7.41787 89.228 3.80484L89.228 3.80484C87.0443 1.05629 87.5208 -0.756173 85.3264 0.309661C82.3203 1.74963 79.3023 3.16475 76.2979 4.60833C65.437 9.80655 54.602 15.0598 43.8596 20.4998C33.2035 25.8853 22.5846 31.3533 11.7753 36.4277C8.58578 37.8868 5.40398 39.3886 2.10195 40.5806C-1.61289 41.7316 0.0149743 46.9852 3.72982 45.8341Z" sodipodi:nodetypes="ccccccccccccccc"/><path id="path3779" transform="matrix(2.72125961221822 0 0 2.72125961221822 30.2189963268448 68.5081919502012)" fill="#0046aa" stroke-opacity="0" stroke="#000000" stroke-width="0" stroke-linecap="square" stroke-linejoin="bevel" d="M2.54102 5.48485C6.90144 5.89442 11.287 6.00212 15.6617 6.17106C27.6287 6.59542 39.597 7.02184 51.5504 7.74841C54.4706 7.92592 57.3888 8.13564 60.308 8.32926C73.8129 9.22693 87.2582 10.7807 100.704 12.2927C104.17 12.7098 107.649 12.9946 111.125 13.3101C108.009 13.2796 110.473 9.20498 110.735 8.06907C107.027 9.24239 108.686 14.4861 112.394 13.3128L112.394 13.3128C112.794 11.7847 113.662 10.3066 113.595 8.72838C113.569 8.11208 112.175 7.92969 111.62 7.83244C108.184 7.52339 104.745 7.23726 101.319 6.82716C87.7894 5.3058 74.2605 3.74397 60.6719 2.84131C57.7323 2.64645 54.7936 2.43541 51.8529 2.25674C39.8695 1.52866 27.8711 1.10041 15.8739 0.675157C11.6791 0.513236 7.47577 0.402651 3.29253 0.0364358C-0.560088 -0.494959 -1.31159 4.95346 2.54102 5.48485Z" sodipodi:nodetypes="ccccccccccccccccc"/>
</svg>
